<svg width="32" height="32" viewBox="0 0 32 32" fill="none" xmlns="http://www.w3.org/2000/svg">
<path d="M5.5784 19.7103C5.62065 18.2687 6.22346 16.8979 7.26269 15.8803L10.9208 12.2811C11.4535 11.7543 12.0873 11.3367 12.7853 11.0524C13.4833 10.7681 14.2317 10.6228 14.9873 10.6249H14.9925C15.7609 10.6254 16.5215 10.7774 17.2292 11.0718C17.9368 11.3662 18.5774 11.7971 19.1129 12.339C19.6484 12.8809 20.068 13.5229 20.3469 14.2269C20.6259 14.931 20.7585 15.6829 20.737 16.4382C20.7307 16.6578 20.636 16.866 20.4736 17.017C20.3112 17.1679 20.0945 17.2492 19.8712 17.243C19.6478 17.2369 19.4361 17.1437 19.2826 16.984C19.1291 16.8244 19.0464 16.6113 19.0527 16.3916C19.0681 15.8576 18.9744 15.3259 18.7772 14.8281C18.58 14.3302 18.2834 13.8763 17.9048 13.4931C17.5262 13.1099 17.0733 12.8052 16.5729 12.597C16.0725 12.3889 15.5348 12.2814 14.9915 12.2811C14.4574 12.2798 13.9283 12.3825 13.4349 12.5835C12.9414 12.7844 12.4933 13.0796 12.1166 13.4518L8.45853 17.0489C7.7038 17.8004 7.28208 18.8151 7.28544 19.8712C7.2888 20.9274 7.71697 21.9394 8.47647 22.6863C9.23597 23.4331 10.2651 23.8541 11.3392 23.8574C12.4133 23.8607 13.4451 23.4461 14.2093 22.7039L15.3673 21.5652C15.5265 21.4165 15.7385 21.3348 15.9581 21.3376C16.1777 21.3403 16.3875 21.4273 16.5428 21.58C16.6981 21.7328 16.7866 21.9391 16.7894 22.155C16.7922 22.3709 16.7091 22.5794 16.5579 22.736L15.3999 23.8746C14.8657 24.4001 14.2314 24.817 13.5333 25.1014C12.8352 25.3858 12.0869 25.5322 11.3313 25.5322C10.5757 25.5322 9.82741 25.3858 9.12931 25.1014C8.4312 24.817 7.79692 24.4001 7.26269 23.8746C6.70934 23.3292 6.27466 22.6787 5.98511 21.9628C5.69555 21.2468 5.55717 20.4805 5.5784 19.7103ZM19.3685 9.62495L20.5265 8.4863C20.9041 8.11244 21.3536 7.81614 21.8488 7.61463C22.344 7.41311 22.8749 7.31039 23.4108 7.31245C24.2147 7.31309 25.0004 7.54803 25.6686 7.98759C26.3368 8.42715 26.8576 9.0516 27.165 9.78205C27.4724 10.5125 27.5528 11.3162 27.3959 12.0915C27.239 12.8668 26.8519 13.579 26.2836 14.1381L22.6318 17.7352C22.0567 18.3038 21.3209 18.6892 20.5202 18.8413C19.7194 18.9934 18.8906 18.9053 18.1415 18.5883C17.3923 18.2713 16.7574 17.7401 16.3192 17.0637C15.881 16.3874 15.6597 15.5971 15.6841 14.7955C15.6904 14.5758 15.6077 14.3627 15.4542 14.2031C15.3007 14.0434 15.089 13.9502 14.8657 13.9441C14.6423 13.9379 14.4256 14.0192 14.2633 14.1701C14.1009 14.3211 14.0061 14.5292 13.9998 14.7489C13.9796 15.5178 14.1185 16.2828 14.408 16.9974C14.6976 17.712 15.1317 18.3614 15.6841 18.906C16.7629 19.9663 18.2258 20.562 19.7512 20.562C21.2765 20.562 22.7394 19.9663 23.8182 18.906L27.4742 15.3089C28.2782 14.5186 28.8259 13.5117 29.0481 12.4154C29.2704 11.3191 29.1571 10.1826 28.7227 9.14962C28.2883 8.11659 27.5522 7.23338 26.6075 6.61159C25.6628 5.9898 24.5518 5.65735 23.415 5.65623C22.6593 5.65409 21.9107 5.79937 21.2125 6.08366C20.5143 6.36795 19.8804 6.78561 19.3475 7.31245L18.1895 8.4511C18.0532 8.60896 17.982 8.81129 17.99 9.01822C17.9979 9.22514 18.0844 9.42164 18.2323 9.56896C18.3803 9.71629 18.579 9.80376 18.7894 9.81412C18.9997 9.82449 19.2063 9.75699 19.3685 9.62495Z" fill="#8E24FF"/>
<path d="M27.0187 20.0446H23.7554C23.4669 20.0446 23.1902 20.1573 22.9862 20.3579C22.7822 20.5585 22.6676 20.8306 22.6676 21.1143C22.6676 21.3979 22.7822 21.67 22.9862 21.8706C23.1902 22.0712 23.4669 22.1839 23.7554 22.1839H27.0187C27.3072 22.1839 27.5839 22.0712 27.7879 21.8706C27.9919 21.67 28.1065 21.3979 28.1065 21.1143C28.1065 20.8306 27.9919 20.5585 27.7879 20.3579C27.5839 20.1573 27.3072 20.0446 27.0187 20.0446ZM3.08777 13.6268H6.35108C6.63958 13.6268 6.91626 13.5141 7.12025 13.3135C7.32425 13.1129 7.43885 12.8408 7.43885 12.5571C7.43885 12.2734 7.32425 12.0014 7.12025 11.8008C6.91626 11.6002 6.63958 11.4875 6.35108 11.4875H3.08777C2.79928 11.4875 2.5226 11.6002 2.3186 11.8008C2.11461 12.0014 2 12.2734 2 12.5571C2 12.8408 2.11461 13.1129 2.3186 13.3135C2.5226 13.5141 2.79928 13.6268 3.08777 13.6268ZM19.4043 24.3232C19.1158 24.3232 18.8392 24.4359 18.6352 24.6365C18.4312 24.8371 18.3166 25.1091 18.3166 25.3928V28.6017C18.3166 28.8854 18.4312 29.1575 18.6352 29.3581C18.8392 29.5587 19.1158 29.6714 19.4043 29.6714C19.6928 29.6714 19.9695 29.5587 20.1735 29.3581C20.3775 29.1575 20.4921 28.8854 20.4921 28.6017V25.3928C20.4921 25.1091 20.3775 24.8371 20.1735 24.6365C19.9695 24.4359 19.6928 24.3232 19.4043 24.3232ZM10.7022 9.34821C10.9907 9.34821 11.2673 9.23551 11.4713 9.03491C11.6753 8.83432 11.7899 8.56225 11.7899 8.27856V5.06964C11.7899 4.78595 11.6753 4.51389 11.4713 4.31329C11.2673 4.11269 10.9907 4 10.7022 4C10.4137 4 10.137 4.11269 9.933 4.31329C9.729 4.51389 9.6144 4.78595 9.6144 5.06964V8.27856C9.6144 8.56225 9.729 8.83432 9.933 9.03491C10.137 9.23551 10.4137 9.34821 10.7022 9.34821Z" fill="#8E24FF"/>
</svg>
